<svg id="visual" viewBox="0 0 1920 1080" width="1920" height="1080" xmlns="http://www.w3.org/2000/svg" xmlns:xlink="http://www.w3.org/1999/xlink" version="1.1"><rect x="0" y="0" width="1920" height="1080" fill="#331B4D"></rect><path d="M0 344L45.7 346.2C91.3 348.3 182.7 352.7 274.2 349.7C365.7 346.7 457.3 336.3 548.8 314.5C640.3 292.7 731.7 259.3 823 255.8C914.3 252.3 1005.7 278.7 1097 303.5C1188.3 328.3 1279.7 351.7 1371.2 349.5C1462.7 347.3 1554.3 319.7 1645.8 293C1737.3 266.3 1828.7 240.7 1874.3 227.8L1920 215L1920 0L1874.3 0C1828.7 0 1737.3 0 1645.8 0C1554.3 0 1462.7 0 1371.2 0C1279.7 0 1188.3 0 1097 0C1005.7 0 914.3 0 823 0C731.7 0 640.3 0 548.8 0C457.3 0 365.7 0 274.2 0C182.7 0 91.3 0 45.7 0L0 0Z" fill="#745185"></path><path d="M0 193L45.7 191C91.3 189 182.7 185 274.2 186.5C365.7 188 457.3 195 548.8 198.3C640.3 201.7 731.7 201.3 823 210.3C914.3 219.3 1005.7 237.7 1097 250.7C1188.3 263.7 1279.7 271.3 1371.2 271.5C1462.7 271.7 1554.3 264.3 1645.8 266C1737.3 267.7 1828.7 278.3 1874.3 283.7L1920 289L1920 0L1874.3 0C1828.7 0 1737.3 0 1645.8 0C1554.3 0 1462.7 0 1371.2 0C1279.7 0 1188.3 0 1097 0C1005.7 0 914.3 0 823 0C731.7 0 640.3 0 548.8 0C457.3 0 365.7 0 274.2 0C182.7 0 91.3 0 45.7 0L0 0Z" fill="#b04886"></path><path d="M0 117L45.7 124.2C91.3 131.3 182.7 145.7 274.2 151.5C365.7 157.3 457.3 154.7 548.8 156.7C640.3 158.7 731.7 165.3 823 170.3C914.3 175.3 1005.7 178.7 1097 179.5C1188.3 180.3 1279.7 178.7 1371.2 175.8C1462.7 173 1554.3 169 1645.8 172C1737.3 175 1828.7 185 1874.3 190L1920 195L1920 0L1874.3 0C1828.7 0 1737.3 0 1645.8 0C1554.3 0 1462.7 0 1371.2 0C1279.7 0 1188.3 0 1097 0C1005.7 0 914.3 0 823 0C731.7 0 640.3 0 548.8 0C457.3 0 365.7 0 274.2 0C182.7 0 91.3 0 45.7 0L0 0Z" fill="#e53d67"></path><path d="M0 70L45.7 65.7C91.3 61.3 182.7 52.7 274.2 61.5C365.7 70.3 457.3 96.7 548.8 99.3C640.3 102 731.7 81 823 76.7C914.3 72.3 1005.7 84.7 1097 82C1188.3 79.3 1279.7 61.7 1371.2 65C1462.7 68.3 1554.3 92.7 1645.8 92C1737.3 91.3 1828.7 65.7 1874.3 52.8L1920 40L1920 0L1874.3 0C1828.7 0 1737.3 0 1645.8 0C1554.3 0 1462.7 0 1371.2 0C1279.7 0 1188.3 0 1097 0C1005.7 0 914.3 0 823 0C731.7 0 640.3 0 548.8 0C457.3 0 365.7 0 274.2 0C182.7 0 91.3 0 45.7 0L0 0Z" fill="#ff532e"></path></svg>