<svg id="visual" viewBox="0 0 1080 1920" width="1080" height="1920" xmlns="http://www.w3.org/2000/svg" xmlns:xlink="http://www.w3.org/1999/xlink" version="1.1"><rect x="0" y="0" width="1080" height="1920" fill="#331B4D"></rect><defs><linearGradient id="grad1_0" x1="0%" y1="0%" x2="100%" y2="100%"><stop offset="30%" stop-color="#331b4d" stop-opacity="1"></stop><stop offset="70%" stop-color="#331b4d" stop-opacity="1"></stop></linearGradient></defs><defs><linearGradient id="grad2_0" x1="0%" y1="0%" x2="100%" y2="100%"><stop offset="30%" stop-color="#331b4d" stop-opacity="1"></stop><stop offset="70%" stop-color="#331b4d" stop-opacity="1"></stop></linearGradient></defs><g transform="translate(1080, 0)"><path d="M0 486C-76.1 493.1 -152.2 500.3 -186 449C-219.7 397.7 -211.2 288.1 -232.6 232.6C-254.1 177.2 -305.7 175.9 -352.9 146.2C-400.2 116.4 -443.1 58.2 -486 0L0 0Z" fill="#FF532E"></path></g><g transform="translate(0, 1920)"><path d="M0 -486C60.8 -478 121.6 -469.9 186 -449C250.4 -428.1 318.4 -394.2 338 -338C357.6 -281.8 328.9 -203.2 345.5 -143.1C362.1 -83.1 424.1 -41.5 486 0L0 0Z" fill="#FF532E"></path></g></svg>